<svg enable-background="new 713.081 796 200 200" height="200" viewBox="713.081 796 200 200" width="200" xmlns="http://www.w3.org/2000/svg"><path d="m897.643 875.551c-5.526-7.536-15.002-12.035-25.347-12.035h-30.39c.829-5.573 2.11-14.731 3.965-29.352 1.485-11.703-.791-21.075-6.767-27.857-7.902-8.968-19.523-10.307-25.747-10.307h-4.413l-33.403 81.869h-39.984c-6.71 0-12.169 5.459-12.169 12.169v93.793c0 6.709 5.459 12.169 12.169 12.169h22.294c6.563 0 12.021-5.338 12.167-11.899l.021-.964 22.569 6.096c9.75 2.632 19.813 3.968 29.91 3.968h27.158c13.534 0 25.373-8.677 29.458-21.589l4.962-15.682c7.201-22.761 13.91-43.961 16.874-53.373 4.093-12.991.451-21.856-3.327-27.006zm-9.199 23.06c-2.964 9.408-9.669 30.603-16.869 53.355l-4.961 15.683c-2.351 7.427-9.156 12.416-16.937 12.416h-27.157c-8.941 0-17.852-1.183-26.485-3.515l-25.954-7.008v-78.54h6.108c4.968 0 9.391-2.972 11.268-7.572l30.188-73.987c3.711.535 8.434 1.949 11.604 5.547 3.374 3.828 4.582 9.723 3.593 17.521-3.683 29.024-5.073 36.227-5.085 36.285l-1.567 7.853h46.106c6.084 0 11.739 2.556 14.757 6.669 2.882 3.931 3.35 9.076 1.391 15.293z"/></svg>