<svg enable-background="new 710.081 796 200 200" height="200" viewBox="710.081 796 200 200" width="200" xmlns="http://www.w3.org/2000/svg"><path d="m757.859 883.623h-31.521c-3.31 0-5.995 2.685-5.995 5.996v100.385c0 3.312 2.685 5.996 5.995 5.996h25.424c3.259 0 5.921-2.604 5.995-5.863l.102-4.605z"/><path d="m874.249 868.261c-15.132 0-40.775 0-40.775 0s1.458-7.302 5.521-39.328c3.453-27.216-15.549-32.933-27.827-32.933l-41.794 99.999v87.216l21.422 5.784c9.838 2.656 19.988 4.004 30.179 4.004h29.067c11.352 0 21.403-7.374 24.826-18.197 9.536-30.143 19.473-61.532 23.368-73.899 6.648-21.105-8.85-32.646-23.987-32.646z"/></svg>